<?xml version="1.0" encoding="utf-8"?>
<!-- Generator: Adobe Illustrator 25.0.0, SVG Export Plug-In . SVG Version: 6.00 Build 0)  -->
<svg version="1.1" id="Слой_1" xmlns="http://www.w3.org/2000/svg" xmlns:xlink="http://www.w3.org/1999/xlink" x="0px" y="0px"
	 viewBox="0 0 2726.7 1128.7" style="enable-background:new 0 0 2726.7 1128.7;" xml:space="preserve">
<style type="text/css">
	.st0{fill:#F8FBFF;}
	.st1{fill:#E7F1FB;}
	.st2{fill:#DEEDFF;}
	.st3{fill:#F99746;}
	.st4{fill:#FFB278;}
	.st5{fill:#82B378;}
	.st6{fill:#A8D29F;}
	.st7{fill:#F1A34F;}
	.st8{fill:#FFB973;}
	.st9{fill:#D86713;}
	.st10{fill:#D1A586;}
	.st11{fill:#E5BD9E;}
	.st12{fill:#DFB697;}
	.st13{fill:#A0795F;}
	.st14{fill:#6BB7BF;}
	.st15{fill:#8AD8DB;}
	.st16{fill:#ED9F4A;}
	.st17{fill:#FFB27D;}
	.st18{fill:#C45446;}
	.st19{fill:#E37970;}
	.st20{fill:#1C468A;}
	.st21{fill:#C65447;}
	.st22{fill:#163560;}
	.st23{fill:#F4A269;}
	.st24{fill:#599DAD;}
	.st25{fill:#E2915A;}
	.st26{fill:#233862;}
	.st27{fill:#2B478B;}
	.st28{fill:#E9F3FE;}
	.st29{fill:#22407A;}
	.st30{fill:#FFFFFF;}
	.st31{fill:#D9E9F9;}
	.st32{fill:#BA4C43;}
	.st33{fill:#AA413E;}
	.st34{fill:#B5453C;}
	.st35{fill:#ED975D;}
	.st36{fill:#699DEE;}
	.st37{fill:#4A75CB;}
	.st38{fill:#E7F1FD;}
	.st39{fill:#ED7D2B;}
	.st40{fill:#C69D7F;}
	.st41{fill:#E0B594;}
	.st42{fill:#2E3552;}
</style>
<g>
	<g>
		<path className="st0" d="M2656.2,1106.5H74.5c0,0-2.2-21.3-2.9-55.7c-0.4-20.1-0.2-44.6,1.2-71.9c0.1-2.2,0.2-4.5,0.4-6.8
			c0.8-12.5,1.8-25.6,3.1-39.1c0.1-1.2,0.2-2.4,0.4-3.6c1.5-14.1,3.3-28.8,5.7-43.8c1.9-12.2,4.1-24.8,6.6-37.5
			c0.2-0.9,0.4-1.8,0.5-2.7c1.3-6.5,2.7-13,4.2-19.6c0.6-2.6,1.2-5.2,1.8-7.7c1.2-5,2.5-10.1,3.8-15.2c3.2-12.5,6.8-25,10.8-37.6
			c0.4-1.3,0.8-2.6,1.2-3.9c1.8-5.6,3.7-11.2,5.7-16.9c3-8.6,6.2-17.1,9.6-25.7c2.1-5.4,4.3-10.7,6.6-16.1
			c21.7-50.6,50.7-100.2,89.4-144.6c88.7-101.7,228.4-176.1,447.6-173.9c44.1,0.4,85-0.7,123.3-3.2h0.1c11.6-0.8,23-1.7,34.1-2.7
			l0.1,0c253.2-23.3,380.1-110.1,495.5-194.8c4.1-3,8.3-6.1,12.4-9.1c40.3-29.7,79.8-58.9,123.3-84.6c11.1-6.6,22.5-13,34.3-19.1
			c72.1-37.4,157.5-64.5,275.4-70.4c11.5-0.6,22.7-0.5,33.6,0.2c4.2,0.3,8.3,0.6,12.4,1.1c45.9,5,86.4,21.4,120.4,47.2
			c88.4,67.2,132.4,198.6,109.4,362.7c-15.6,111.1,19.6,171.4,79.9,210.8C2291,731.3,2649.9,680.6,2656.2,1106.5z"/>
		<polygon className="st1" points="1408,681.2 1408,630.5 1396.1,630.5 1396.1,543.3 1332.4,543.3 1332.4,630.5 1272.7,630.5
			1272.7,488.4 1206.9,488.4 1206.9,580.6 1191.9,580.6 1191.9,470.5 1126.1,470.5 1126.1,677 1042.9,677 1042.9,797.5
			1011.8,797.5 1011.8,743.9 940.4,743.9 940.4,775.6 899.4,775.6 899.4,633.6 848.8,633.6 848.8,738.7 798.1,738.7 798.1,1123.7
			848.8,1123.7 892.2,1123.7 899.4,1123.7 940.4,1123.7 963.6,1123.7 1000.7,1123.7 1011.8,1123.7 1042.9,1123.7 1072.1,1123.7
			1126.1,1123.7 1142.7,1123.7 1175.6,1123.7 1191.9,1123.7 1206.9,1123.7 1241.4,1123.7 1264.8,1123.7 1272.7,1123.7
			1332.4,1123.7 1395.1,1123.7 1396.1,1123.7 1408,1123.7 1458.8,1123.7 1458.8,681.2 		"/>
		<polygon className="st1" points="2122.1,855.6 2122.1,1123.7 1483.7,1123.7 1483.7,890.4 1532.6,890.4 1532.6,826.8 1581.5,826.8
			1581.5,912.8 1621.2,912.8 1621.2,893.6 1690.2,893.6 1690.2,926.1 1720.2,926.1 1720.2,853.1 1800.6,853.1 1800.6,727.9
			1864.2,727.9 1864.2,794.7 1878.7,794.7 1878.7,738.8 1942.3,738.8 1942.3,824.9 1999.9,824.9 1999.9,772 2061.5,772
			2061.5,824.9 2073,824.9 2073,855.6 		"/>
		<polygon className="st1" points="804.6,750.5 804.6,1122.4 222.5,1122.4 222.5,798.8 267.1,798.8 267.1,710.5 311.8,710.5
			311.8,829.8 347.9,829.8 347.9,803.1 410.8,803.1 410.8,848.2 438.2,848.2 438.2,747 511.5,747 511.5,573.4 569.5,573.4
			569.5,666 582.7,666 582.7,588.4 640.6,588.4 640.6,707.9 693.2,707.9 693.2,634.6 749.4,634.6 749.4,707.9 759.8,707.9
			759.8,750.5 		"/>
		<path className="st2" d="M1493.1,70.8v1050.5h-34.3V89.8C1470,83.2,1481.4,76.9,1493.1,70.8z"/>
		<polygon className="st2" points="827.7,378.4 827.7,1106.5 827.7,1121.3 793.4,1121.3 793.4,1106.5 793.4,381.1 		"/>
	</g>
	<g>
		<path className="st3" d="M1335.6,174.4v81.7c0,10.3-2.6,18.7-5.8,18.7h-0.8c-3.2,0-5.8-8.4-5.8-18.7v-72.6
			C1327.3,180.5,1331.4,177.5,1335.6,174.4z"/>
		<path className="st3" d="M1326.1,241.8c-45.1,0-81.7,38.7-81.7,86.4h163.5C1407.9,280.5,1371.3,241.8,1326.1,241.8z"/>
		<path className="st4" d="M1332.6,242.9c-2.3-0.5-4.7-0.8-7.2-0.8c-29.4,0-53.3,38.6-53.3,86.2h14.4
			C1286.6,284.6,1306.6,248.5,1332.6,242.9z"/>
	</g>
	<g>
		<path className="st3" d="M1814.6,1.7v234.7c0,2.1,0,4.1-0.1,6c-0.4,18.3-2.8,32.4-5.7,32.4h-0.8c-2.7,0-4.9-12.1-5.6-28.5
			c-0.1-1.3-0.1-2.7-0.1-4.1c0-0.1,0-0.2,0-0.3c0-1.8-0.1-3.6-0.1-5.5V0.6C1806.4,0.9,1810.5,1.2,1814.6,1.7z"/>
		<path className="st3" d="M1805.2,241.8c-45.1,0-81.7,38.7-81.7,86.4h163.5C1886.9,280.5,1850.3,241.8,1805.2,241.8z"/>
		<path className="st4" d="M1811.7,242.9c-2.3-0.5-4.7-0.8-7.2-0.8c-29.4,0-53.3,38.6-53.3,86.2h14.4
			C1765.6,284.6,1785.7,248.5,1811.7,242.9z"/>
	</g>
	<path className="st2" d="M2656.2,1122.6h-534v0.2H1935V48.9c88.4,68.2,132.4,201.6,109.4,368.2c-15.6,112.8,19.6,174,79.9,214
		C2291,741.8,2649.9,690.2,2656.2,1122.6z"/>
	<g>
		<g>
			<path className="st5" d="M2326.4,995.7c0,0-20.6-24-1.3-39.3c0,0,14.1-8.6,25.6-7.9c0,0-16.3,27.4-11,30.1c5.3,2.7,16-31.8,16-31.8
				s32.1-3.1,42.5,1.9c0,0-27.5,22.5-21.7,23.8c5.8,1.3,35.5-20.7,35.5-20.7s29.9,5.1,28.3,23.3c-1.6,18.2-11.9,23.9-16.4,23.4
				c-4.5-0.5-31-10.6-31.6-6.9c-0.6,3.7,15.4,15.8,26.5,16.4c0,0-21.1,23.3-35.1,16.5c-14-6.7-15.2-17.4-24-21.3
				c-8.7-4-16.2-4-12.6,0.1c3.6,4.1,19.4,8,24.4,16.9c5,8.8,9.5,14.8-5,12.6c-14.5-2.2-38.1-12.8-39.1-24.9
				C2326.4,995.7,2326.4,995.7,2326.4,995.7z"/>
			<g>
				<path className="st5" d="M2425.6,975.6c0,0-81.3-3.1-99.2,20.1c0,0-4,11.9-16.2,22.7l-1.9,5.2c0,0,14.1-14.8,19.1-15.7
					C2327.4,1007.9,2319.5,979.1,2425.6,975.6z"/>
				<path className="st5" d="M2310.2,1018.5c0,0-17.4,12.9-18.7,35.9l3.2,0.3c0,0,5.6-23.8,15.6-33.1
					C2320.4,1012.2,2310.2,1018.5,2310.2,1018.5z"/>
			</g>
		</g>
		<g>
			<path className="st6" d="M2254.3,965.5c0,0,32.8-18.4,17.5-43.3c0,0-12.2-15.3-25.4-19.2c0,0,7,37.2,0,38c-7,0.9-4.8-42-4.8-42
				s-34.5-16.6-48.1-15.3c0,0,21.4,36.3,14.4,35.4c-7-0.9-31-37.6-31-37.6s-35.4-6.6-41.1,14.4c-5.7,21,3.5,31.5,8.7,32.8
				c5.2,1.3,38.9,0.9,38,5.2c-0.9,4.4-23.6,11.4-36.3,7.4c0,0,14,34.5,32.3,32.8c18.4-1.7,24-13.1,35.4-14c11.4-0.9,19.7,2.2,14,5.2
				c-5.7,3.1-24.9,1-34.1,8.8c-9.2,7.8-16.6,12.6,0.4,16.1c17,3.5,47.6,1.3,53.8-11.8C2254.3,965.5,2254.3,965.5,2254.3,965.5z"/>
			<g>
				<path className="st5" d="M2152,902.6c0,0,91.8,29.7,102.3,62.9c0,0-0.4,14.9,8.7,31.9v6.6c0,0-9.6-22.3-14.9-25.4
					C2248.2,978.6,2268.7,949.8,2152,902.6z"/>
				<path className="st5" d="M2263.1,997.4c0,0,14.2,21.5,6.1,47.7l-3.6-1c0,0,3.5-28.8-3.9-43.3
					C2254.2,986.3,2263.1,997.4,2263.1,997.4z"/>
			</g>
		</g>
		<g>
			<path className="st6" d="M2306.5,940.2c0,0-43.2-24.2-23-57c0,0,16.1-20.2,33.4-25.4c0,0-9.2,49,0,50.1c9.2,1.2,6.3-55.3,6.3-55.3
				s45.5-21.9,63.4-20.2c0,0-28.2,47.8-19,46.7c9.2-1.2,40.9-49.6,40.9-49.6s46.7-8.6,54.2,19c7.5,27.7-4.6,41.5-11.5,43.2
				c-6.9,1.7-51.3,1.2-50.1,6.9c1.2,5.8,31.1,15,47.8,9.8c0,0-18.4,45.5-42.6,43.2c-24.2-2.3-31.7-17.3-46.7-18.4
				c-15-1.2-25.9,2.9-18.4,6.9s32.8,1.3,44.9,11.6c12.1,10.3,21.9,16.6-0.6,21.2s-62.8,1.7-70.9-15.6
				C2306.5,940.2,2306.5,940.2,2306.5,940.2z"/>
			<g>
				<path className="st5" d="M2441.3,857.2c0,0-121,39.2-134.8,83c0,0,0.6,19.6-11.5,42.1v8.6c0,0,12.7-29.4,19.6-33.4
					C2314.5,957.5,2287.5,919.4,2441.3,857.2z"/>
				<path className="st5" d="M2295,982.3c0,0-18.7,28.3-8,62.8l4.8-1.3c0,0-4.7-38,5.1-57.1S2295,982.3,2295,982.3z"/>
			</g>
		</g>
		<path className="st7" d="M2305,1119.9c46.8,0,84.6-37.9,84.6-84.7h-169.3C2220.4,1082,2258.3,1119.9,2305,1119.9z"/>
		<path className="st8" d="M2325.9,1119.2c-3.4,0.4-7,0.6-10.5,0.6c-46.8,0-84.6-37.9-84.6-84.7h21
			C2251.7,1078.4,2284.1,1114.1,2325.9,1119.2z"/>
		<path className="st7" d="M2390.8,1124.2h-171.6l0,0c0-5.8,4.7-10.4,10.4-10.4h150.8C2386.2,1113.7,2390.8,1118.4,2390.8,1124.2
			L2390.8,1124.2z"/>
		<rect x="2217.6" y="1035.2" className="st9" width="174" height="2.6"/>
	</g>
	<g>
		<path className="st10" d="M1949.2,858.9c1.5-37.3,4.9-69.8,8.8-92.4c6.3-36.1,12-56.8,12.1-57c0.8-3.2,12.9-16,39.6-15.6
			c26.8,0.4,24.2,17.2,24.2,17.2l0,0c0,0.6-0.1,1.1-0.2,1.5c-0.3,0.9-24.8,88.7-23.8,202.1c0,1.6,0.2,4.3,0.1,6.2c0,0-62,1.6-62,0
			C1945.9,911,1946.9,883.6,1949.2,858.9z"/>
		<path className="st11" d="M1941.4,914.2c0,1.6,0.9,2.8,1.9,2.8h0c1,0,1.9-1.3,1.9-2.8h53.1c0,1.6,0.9,2.8,1.9,2.8h0
			c1,0,1.9-1.3,1.9-2.9c-0.3-32.5,1.6-62.8,4.4-89.5c7.1-66.7,20.1-111.3,20.3-112c0.1-0.4,0.2-0.9,0.2-1.5c0,0,2.5-16.8-24.2-17.2
			c-26.8-0.4-38.8,12.4-39.6,15.6c0,0.2-3.3,11.9-7.6,33c-1.4,7-3,15-4.5,24c-4,22.6-7.3,55.1-8.8,92.4
			C1940,883.6,1939.2,904.3,1941.4,914.2z"/>
		<path className="st12" d="M1941.4,914.2c0,1.6,0.9,2.8,1.9,2.8h0c1,0,1.9-1.3,1.9-2.8h53.1c0,1.6,0.9,2.8,1.9,2.8h0
			c1,0,1.9-1.3,1.9-2.9c-0.3-32.5,1.6-62.8,4.4-89.5c-8.8-42.3-42.7-74.7-50.9-82c-1.4,7-3,15-4.5,24c-4,22.6-7.3,55.1-8.8,92.4
			C1940,883.6,1939.2,904.3,1941.4,914.2z"/>
		<g>
			<path className="st10" d="M1994.9,913.7l-0.1-0.1c0,0-0.1-0.1-0.1-0.3l0,0c0-0.4-0.1-0.8-0.4-1.1c-1.7-1.7-8.1-1.6-16.3-1.5
				c-8.9,0.1-20,0.2-31-1.7c-5.7-1-1.9-44.3,2.2-84.9c0.7-6.9,1.2-12.3,1.5-15.5c2.6-34.5,17.9-95.7,18-96.2
				c0.7-2.6,9.9-12.1,29.8-11.8c7.5,0.1,12.9,2,15.9,5.5c3,3.6,2.5,7.5,2.4,7.7c0,0.4,0,0.8-0.2,1.2c-0.1,0.3-13.8,79.5-16.1,98.5
				c-3.7,31.3-5.2,96.1-5.2,99.8c0,0,0,0.1,0,0.1l0,0.2L1994.9,913.7z M1983.1,910c6,0,10.1,0.3,11.6,1.8c0,0,0,0,0,0
				c0-1.5,0.1-4.3,0.3-9.6c0.2-6.2,0.5-15.9,0.9-26.8c0.8-19.1,2.1-45.4,4.1-62.1c2.3-19.5,16-98.4,16.1-98.6c0.1-0.3,0.1-0.7,0.1-1
				c0-0.1,0.5-3.9-2.3-7.2c-2.9-3.4-8.1-5.2-15.4-5.3c-19.6-0.3-28.5,8.9-29.2,11.4c-0.2,0.6-15.4,61.5-18,96.1
				c-0.2,3.2-0.8,8.6-1.5,15.5c-2.7,27-8.3,83.2-2.7,84.2c11,1.9,22,1.8,30.9,1.7C1979.8,910,1981.5,910,1983.1,910z"/>
		</g>
		<path className="st11" d="M2006,917h-208.3c0,0,4.9-19.4,125.5-16.5C2008.6,902.6,2006,917,2006,917z"/>
		<g>
			<path className="st10" d="M2023,1119.3c-24.2-120.6-17.9-194.6-17.9-195.6c0.1-1.9-3.4-3.5-5.3-3.6c-1.9,0-10.2-0.5-11.2,1
				c-1.3,2.1-6.1,93.3,29.9,198.1H2023z"/>
		</g>
		<g>
			<path className="st10" d="M1828.5,1119.3c24.2-120.6,17.9-194.6,17.9-195.6c-0.1-1.9,3.4-3.5,5.3-3.6c1.9,0,10.2-0.5,11.2,1
				c1.3,2.1,6.1,93.3-29.9,198.1H1828.5z"/>
		</g>
		<g>
			<path className="st13" d="M1789.9,1119.3c24.2-120.6,17.9-194.6,17.9-195.6c-0.1-1.9,3.4-3.5,5.3-3.6c1.9,0,10.2-0.5,11.2,1
				c1.3,2.1,6.1,93.3-29.9,198.1H1789.9z"/>
		</g>
		<g>
			<path className="st13" d="M1984.2,1119.3c-24.2-120.6-17.9-194.6-17.9-195.6c0.1-1.9-3.4-3.5-5.3-3.6c-1.9,0-10.2-0.5-11.2,1
				c-1.3,2.1-6.1,93.3,29.9,198.1H1984.2z"/>
		</g>
		<path className="st10" d="M1797.5,923.2h208.4c2.3,0,4.2-1.9,4.2-4.2v-2.7c0-2.3-1.9-4.2-4.2-4.2h-208.4c-2.3,0-4.2,1.9-4.2,4.2v2.7
			C1793.3,921.3,1795.2,923.2,1797.5,923.2z"/>
	</g>
	<g>
		<path className="st10" d="M1160.7,855.3c1.5-37.8,4.9-70.7,8.8-93.7c6.3-36.6,12-57.6,12.1-57.8c0.8-3.2,12.9-16.2,39.6-15.8
			c26.8,0.4,24.2,17.5,24.2,17.5l0,0c0,0.6-0.1,1.1-0.2,1.5c-0.3,0.9-24.8,89.9-23.8,204.9c0,1.6,0.2,4.4,0.1,6.3c0,0-62,1.6-62,0
			C1157.4,908.1,1158.4,880.3,1160.7,855.3z"/>
		<path className="st11" d="M1152.9,911.3c0,1.6,0.9,2.9,1.9,2.9h0c1,0,1.9-1.3,1.9-2.9h53.1c0,1.6,0.9,2.9,1.9,2.9h0c1,0,1.9-1.3,1.9-3
			c-0.3-32.9,1.6-63.7,4.4-90.8c7.1-67.7,20.1-112.9,20.3-113.5c0.1-0.4,0.2-0.9,0.2-1.5c0,0,2.5-17.1-24.2-17.5
			c-26.8-0.4-38.8,12.6-39.6,15.8c0,0.2-3.3,12.1-7.6,33.5c-1.4,7.1-3,15.2-4.5,24.3c-4,22.9-7.3,55.8-8.8,93.7
			C1151.5,880.3,1150.7,901.3,1152.9,911.3z"/>
		<path className="st12" d="M1152.9,911.3c0,1.6,0.9,2.9,1.9,2.9h0c1,0,1.9-1.3,1.9-2.9h53.1c0,1.6,0.9,2.9,1.9,2.9h0c1,0,1.9-1.3,1.9-3
			c-0.3-32.9,1.6-63.7,4.4-90.8c-8.8-42.9-42.7-75.8-50.9-83.2c-1.4,7.1-3,15.2-4.5,24.3c-4,22.9-7.3,55.8-8.8,93.7
			C1151.5,880.3,1150.7,901.3,1152.9,911.3z"/>
		<g>
			<path className="st10" d="M1206.5,910.8l-0.1-0.1c0,0-0.1-0.1-0.1-0.3l0,0c0-0.5-0.1-0.8-0.4-1.1c-1.7-1.7-8.1-1.7-16.3-1.6
				c-8.9,0.1-20,0.2-31-1.7c-5.7-1-1.9-44.9,2.2-86c0.7-7,1.2-12.5,1.5-15.8c2.6-34.8,17.9-97,18-97.5c0.7-2.6,9.9-12.3,29.8-12
				c7.5,0.1,12.8,2,15.8,5.5c3.1,3.6,2.5,7.7,2.5,7.8c0,0.4,0,0.8-0.2,1.2c-0.1,0.3-13.8,80.6-16.1,99.9
				c-3.7,31.7-5.2,97.5-5.2,101.1c0,0,0,0.1,0,0.1l0,0.2L1206.5,910.8z M1194.6,907.1c5.9,0,10.1,0.3,11.6,1.8c0,0,0,0,0,0
				c0-1.5,0.1-4.3,0.3-9.7c0.2-6.3,0.5-16.1,0.9-27.2c0.8-19.4,2.1-46,4.1-63c2.3-19.7,16-99.7,16.1-100c0.1-0.3,0.1-0.7,0.1-1
				c0-0.1,0.5-4-2.4-7.4c-2.9-3.4-8-5.2-15.3-5.3c-0.3,0-0.6,0-0.9,0c-18.9,0-27.6,9.1-28.3,11.5c-0.2,0.6-15.4,62.4-18,97.4l-0.3,0
				l0.3,0c-0.2,3.3-0.8,8.8-1.5,15.8c-2.7,27.4-8.3,84.4-2.7,85.4c11,1.9,22,1.8,30.9,1.7C1191.3,907.1,1193,907.1,1194.6,907.1z"/>
		</g>
		<path className="st11" d="M1217.5,914.2h-208.3c0,0,4.9-19.6,125.5-16.7C1220.1,899.6,1217.5,914.2,1217.5,914.2z"/>
		<g>
			<path className="st10" d="M1234.5,1119.3C1210.3,997,1216.6,922,1216.6,921c0.1-1.9-3.4-3.6-5.3-3.7c-1.9,0-10.2-0.6-11.2,1.1
				c-1.3,2.1-6.1,94.6,29.9,200.9H1234.5z"/>
		</g>
		<g>
			<path className="st10" d="M1040,1119.3c24.2-122.3,17.9-197.3,17.9-198.3c-0.1-1.9,3.4-3.6,5.3-3.7c1.9,0,10.2-0.6,11.2,1.1
				c1.3,2.1,6.1,94.6-29.9,200.9H1040z"/>
		</g>
		<g>
			<path className="st13" d="M1001.4,1119.3c24.2-122.3,17.9-197.3,17.9-198.3c-0.1-1.9,3.4-3.6,5.3-3.7c1.9,0,10.2-0.6,11.2,1.1
				c1.3,2.1,6.1,94.6-29.9,200.9H1001.4z"/>
		</g>
		<g>
			<path className="st13" d="M1195.7,1119.3C1171.5,997,1177.7,922,1177.8,921c0.1-1.9-3.4-3.6-5.3-3.7c-1.9,0-10.2-0.6-11.2,1.1
				c-1.3,2.1-6.1,94.6,29.9,200.9H1195.7z"/>
		</g>
		<path className="st10" d="M1009.1,920.5h208.3c2.3,0,4.3-1.9,4.3-4.3v-2.8c0-2.3-1.9-4.3-4.3-4.3h-208.3c-2.3,0-4.3,1.9-4.3,4.3v2.8
			C1004.8,918.6,1006.7,920.5,1009.1,920.5z"/>
	</g>
	<g>
		<g>
			<path className="st14" d="M1296.7,756.1c0,0,17.2,7,29.5-10.6C1326.1,745.5,1306.3,742.1,1296.7,756.1z"/>
			<path className="st14" d="M1295.5,748.9c0,0-1.2-6.2-8.4-6.4C1287,742.5,1289.8,748.7,1295.5,748.9z"/>
			<path className="st14" d="M1299.1,712.9c0,0,8.3,0.9,11.5-8.3C1310.6,704.6,1301.5,705.6,1299.1,712.9z"/>
			<g>
				<path className="st14" d="M1318.9,591.9c-16.8-3.6-17.1-17.4-17.1-17.4C1321.6,580.8,1318.9,591.9,1318.9,591.9z"/>
				<path className="st14" d="M1320.1,588.8c0,0,10.5,4.3,18-6.5C1338,582.3,1325.9,580.3,1320.1,588.8z"/>
				<g>
					<path className="st14" d="M1297,796.5l-2.2,2.5c-0.3,0.4-1,0.1-1-0.4c0.1-70.9,9.1-133.9,16.7-171.1c8.3-40.6,16.6-64.6,16.7-64.8
						l0,0c-0.1,0.2-7.6,24.6-15.9,65.1c-7.6,37.2-16.2,85.9-14,167.7C1297.4,795.9,1297.2,796.2,1297,796.5z"/>
				</g>
				<path className="st3" d="M1327.1,553.1c-2.7,2.2-13,11.4-3,18.5c0,0,7.6,2.4,10.2-3.5c1.9-4.5,2.5-9.5,2.6-11.6c0-0.6-0.4-1-0.9-1.1
					c-0.6-0.1-1.4-0.2-2.2-0.5c-0.9-0.4-1.4-1.8-2.7-2.1c-0.8-0.2-1.6-0.4-2.5-0.3C1328,552.5,1327.5,552.7,1327.1,553.1z"/>
				<path className="st14" d="M1321.4,569c0,0,3,2.4,1.9,6.3l0,1.4c0,0,0.8-3.6,4.5-4.7C1327.8,572,1324.5,572.4,1321.4,569z"/>
				<path className="st15" d="M1318.9,591.9c-16.8-3.6-17.1-17.4-17.1-17.4S1315.1,581.9,1318.9,591.9z"/>
			</g>
			<g>
				<path className="st14" d="M1302.7,582.5c0,0-10.6,4.1-17.8-6.8C1284.9,575.7,1297,573.9,1302.7,582.5z"/>
				<g>
					<path className="st14" d="M1321.6,790.6l2.1,2.5c0.3,0.4,1,0.2,1-0.3c1.3-70.9-6.4-134.1-13.3-171.4c-7.4-40.7-15.3-64.9-15.4-65.1
						l0,0c0.1,0.2,7.1,24.8,14.6,65.4c6.8,37.4,14.5,86.2,10.7,168C1321.3,790,1321.4,790.3,1321.6,790.6z"/>
				</g>
				<path className="st3" d="M1296.4,546.6c2.6,2.2,12.7,11.6,2.6,18.5c0,0-7.7,2.3-10.1-3.7c-1.8-4.5-2.3-9.6-2.4-11.7
					c0-0.6,0.4-1,1-1.1c0.6,0,1.4-0.2,2.2-0.4c1-0.3,1.5-1.8,2.7-2.1c0.8-0.2,1.6-0.3,2.6-0.2C1295.5,546.1,1296,546.3,1296.4,546.6
					z"/>
				<path className="st14" d="M1301.8,562.6c0,0-3.1,2.4-2,6.3l0,1.4c0,0-0.7-3.6-4.5-4.8C1295.3,565.6,1298.6,566,1301.8,562.6z"/>
			</g>
			<g>
				<path className="st14" d="M1307.2,570.1c0,0,11.2,1.9,16.1-10.2C1323.4,559.9,1311.1,560.5,1307.2,570.1z"/>
				<g>
					<path className="st14" d="M1330,777.8l-1.6,2.9c-0.2,0.4-0.9,0.3-1-0.1c-15.3-69.2-20.3-132.7-21-170.6
						c-0.8-41.4,2.1-66.6,2.2-66.9l0,0c0,0.2-2.1,25.7-1.3,67c0.7,38,2.9,87.4,22.9,166.7C1330.2,777.1,1330.2,777.5,1330,777.8z"/>
				</g>
				<path className="st3" d="M1306.3,533.7c-2.2,2.7-10.2,13.9,1.1,18.7c0,0,8,0.7,9.2-5.6c0.9-4.8,0.3-9.8,0-11.9
					c-0.1-0.5-0.6-0.9-1.1-0.8c-0.6,0.1-1.4,0.1-2.2,0c-1-0.2-1.8-1.4-3.1-1.5c-0.8,0-1.7,0-2.5,0.3
					C1307.1,532.9,1306.7,533.3,1306.3,533.7z"/>
				<path className="st14" d="M1304.2,550.4c0,0,3.5,1.7,3.3,5.8l0.3,1.4c0,0,0-3.7,3.4-5.6C1311.2,552,1308,553.1,1304.2,550.4z"/>
			</g>
			<path className="st14" d="M1316.4,557.6c0,0,0-8.9,7.6-11.6C1324.1,546,1325.8,553.4,1316.4,557.6z"/>
			<path className="st16" d="M1298.5,543.4c0,0,0.2-6.8-6-8.7C1292.5,534.7,1291,541,1298.5,543.4z"/>
			<path className="st16" d="M1319,584c0.2,0.2,3.3-6.6-2.9-12C1316.1,572,1313.5,579.3,1319,584z"/>
			<path className="st14" d="M1323.4,583.5c-0.2,0,0-3.4,3.2-3.9C1326.5,579.7,1327.1,582.5,1323.4,583.5z"/>
			<path className="st14" d="M1291.4,572c0,0-2.7-5.6-11.4-4.6C1280,567.4,1281.3,573.4,1291.4,572z"/>
		</g>
		<path className="st3" d="M1339.3,804.8h-55.5c-3.7,0-6.6-3.3-6.1-7l25.8-178.1c0.2-1.7,1.7-2.9,3.3-2.9h8.3c1.8,0,3.3,1.3,3.6,3.1
			l26.5,178.1C1345.7,801.5,1342.9,804.8,1339.3,804.8z"/>
		<g>
			<path className="st4" d="M1296,799.4l13.7-182.6c-1.5,0.2-2.7,1.3-2.9,2.9L1281,797.8c-0.5,3.7,2.3,7,6.1,7h11.1
				C1296.7,803.5,1295.9,801.5,1296,799.4z"/>
		</g>
	</g>
	<g>
		<path className="st17" d="M1840.5,785.3c0,0-38.1,43.5-45.9,42.8c-8-0.7-12.8-3.2-19.8,0c-5,2.3-20.7,15-16.5,14.1
			c4.2-0.8,11.9-1.8,13.9-2c2.8-0.3,7.2-0.3,10.3-0.9c1.9-0.3,8.8-0.5,11.1-0.6c10-0.3,57.4-28,57.4-28L1840.5,785.3z"/>
		<g>
			<path className="st18" d="M1777.9,738.9c-1.5-0.9-4.5-0.6-6.6-0.1v-3.1c0-0.7,0-1.4-0.1-2h-32c-0.1,0.7-0.1,1.3-0.1,2v6.3
				c0,8.9,7.3,16.1,16.1,16.1c4.8,0,9.1-2.1,12.1-5.5l0,0c0,0,7.6-1.9,10-4.7C1779.6,745,1780.4,740.4,1777.9,738.9z M1776.2,744.7
				c-0.8,2.1-4.4,3.2-6.2,3.6c0.7-1.6,1.2-3.4,1.3-5.3c1.1-1.5,2.9-2.4,4.1-2.2C1776.5,741,1777.2,742,1776.2,744.7z"/>
			<path className="st19" d="M1741.6,735.6v6.3c0,8.9,7.3,16.1,16.1,16.1c0.7,0,1.5-0.1,2.2-0.2c-7.9-1.1-14-7.8-14-16v-6.3
				c0-0.7,0-1.4,0.1-2h-4.3C1741.7,734.3,1741.6,735,1741.6,735.6z"/>
			<rect x="1748.5" y="756.7" className="st18" width="13.2" height="2"/>
		</g>
		<path className="st20" d="M1866.9,564.4c0,0,1.7-21.8,33.1-16.2c8.3,1.5,14-13.3,27.6-8c29.3,11.4,31-3.6,39.5,17.4
			c3.5,8.8,26.1,19.1,19.2,34.3c-6.9,15.2,4.6,25.5-3.5,37.4c-4.2,6.2-2.5,17.2-22.2,17.6c-9.8,0.2-25.2,18.4-36.2,21.7
			c-11,3.3-44.2-1.5-42.9-16.6c1-11.8-12.8-10.8-21.3-24.4c-7.4-11.9,5.8-14.9-1.3-34.1C1853.9,579.6,1867.4,576.2,1866.9,564.4z"/>
		<g>
			<path className="st17" d="M1694.2,1101.9c0.7,7.3-9.5,9.1-21.3,9.7c-11.8,0.6-8.2,3-24.4,5.9c-16.2,2.9-22.6-1.5-23.8-3.7
				c-1-1.9,6.5-5,14.5-8.4c1-0.4,2-0.9,3-1.3c9-4,14.1-12,21.1-19.5c6.7-7.1,13-29.8,13-29.8l21.9-4.7c0,0-6.2,20.4-8.3,29.2
				c-1.3,5.1,0.6,10.9,2.2,15.2C1693.1,1096.9,1694,1099.3,1694.2,1101.9z"/>
			<path className="st21" d="M1672.9,1111.6c-11.8,0.6-8.2,3-24.4,5.9c-16.2,2.9-22.6-1.5-23.8-3.7c-1-1.9,6.5-5,14.5-8.4l0.1,0.1
				c0,0,11.4,3.9,24.5,0.3c10.7-2.9,21-9.3,28.4-11.3c0.9,2.4,1.8,4.8,2,7.4C1694.9,1109.2,1684.7,1111,1672.9,1111.6z"/>
		</g>
		<path className="st22" d="M1888.5,825.2c0,0-121.6,5.5-149.1,22.8c-27.5,17.3-71.5,219.2-71.5,219.2s2.7,2.2,8.8,2.8
			c5.6,0.6,18.1-2.7,18.1-2.7s63.3-90.3,67.7-113.1c4.5-22.8,3.4-43,13.5-43.6c10.2-0.5,136.7,15.4,155.8-18.3
			C1951,858.6,1888.5,825.2,1888.5,825.2z"/>
		<g>
			<path className="st17" d="M1744.4,1102.7c0.7,7.3-9.5,9.1-21.3,9.7s-8.2,3-24.4,5.9c-16.1,2.9-22.6-1.5-23.8-3.7
				c-1-1.9,6.5-5,14.5-8.4c1-0.4,2-0.9,3-1.3c9-4,14.1-12,21.1-19.5c6.7-7.1,13-29.8,13-29.8l21.9-4.7c0,0-6.2,20.4-8.3,29.2
				c-1.3,5.1,0.6,10.9,2.2,15.2C1743.2,1097.7,1744.1,1100.2,1744.4,1102.7z"/>
			<path className="st21" d="M1723.1,1112.4c-11.8,0.6-8.2,3-24.4,5.9c-16.1,2.9-22.6-1.5-23.8-3.7c-1-1.9,6.5-5,14.5-8.4l0.1,0.1
				c0,0,11.4,3.9,24.5,0.3c10.7-2.9,21-9.3,28.4-11.3c0.9,2.4,1.8,4.8,2,7.4C1745,1110,1734.9,1111.8,1723.1,1112.4z"/>
		</g>
		<path className="st20" d="M1935.7,828.1c0,0-129.5,6.1-156.3,24.5c-26.8,18.4-62.9,221.8-62.9,221.8s2.8,2.1,8.9,2.5
			c5.7,0.4,18-3.4,18-3.4s59.7-92.7,63.3-115.6c3.6-22.9,1.7-43.1,11.8-44.1c10.1-0.9,137.2,10,155-24.4
			C1991.2,855,1935.7,828.1,1935.7,828.1z"/>
		<path className="st17" d="M1974.4,662.6c0-0.1-0.1-0.1-0.2-0.2c-1-1.2-2.3-2.2-3.6-3.2l0,0c0,0,0,0,0,0c-10.6-7.4-29.5-9-29.5-9v0v0
			c0,0,0,0,0,0c0,0-2.1-0.2-5.3-0.3c-2.5-6.4-5.3-15.9-6.2-29.8l-1.9,0.5l-31.5,8.5c0,0,1.4,10,2,19.5c0.1,2.1,0.2,4.1,0.3,6
			c-0.9,0.3-20.5,3.1-24.8,7.7c-4.3,4.6-12.8,35.1-14.9,40.5l121.4,2C1980.2,704.7,1983.2,673,1974.4,662.6z"/>
		<path className="st14" d="M1978.9,879.6c-14.4,1.4-62.8-27.9-78.9-37.4c-0.3-0.2-0.6-0.3-0.8-0.5c-6.7-3.9-16.2-5.8-25.2-7.3
			c-11.5-1.9-22.1-3.1-25.6-7.2c-4.1-4.9,7.9-10.3,17.5-15.9c4.8-2.8,9.1-5.7,10.4-8.6c1-2.3,0.9-7.2,0.3-13.6v0
			c-0.1-1.2-0.3-2.4-0.4-3.7c-0.8,1.6-1.8,3.3-2.9,5c-2.8,4.2-6.6,8.5-10.3,12c-4.6,4.3-9.1,7.6-11.9,8.2c-1.9,0.5-3.8,0.2-5.7-0.5
			c-5-2-9.9-7.5-13.8-12.9c-0.9-1.3-1.8-2.5-2.6-3.7c-2.6-4-4.5-7.3-5.2-8.1c-2.2-2.4,8.7-7.1,13.1-10.6
			c4.4-3.5,21.8-72.2,21.8-72.2c2.2-5.4,10.7-35.9,14.9-40.5c0,0,16.6,20.3,38.2,19.1c21.4-1.1,58.1-21.8,58.7-22.1
			c1.9,0.8,3.8,3.4,3.8,3.4c8.8,10.4,5.7,42.1,5.7,42.1s-16.8,74-16.8,81.4c0,13.7,11.3,45.2,16.7,67.8
			C1983.5,868.3,1984.6,879.1,1978.9,879.6z"/>
		<path className="st23" d="M1896.2,629c0,0,1.4,10,2,19.5c17.8-1.7,26.2-18.6,29.5-27.9L1896.2,629z"/>
		<path className="st17" d="M1890.8,638.4c0,0,42.3-2.1,40.6-28.5c-1.7-26.3,2.6-44.4-24.5-44.1c-27.1,0.2-31.7,10.6-33.3,19.6
			C1872.1,594.3,1879.8,638.2,1890.8,638.4z"/>
		<path className="st20" d="M1889,575.1c0,0,10.1-2.4,13.4,2.6c3.3,4.9,0.9,7.7,8.3,9.7c7.4,2.1,9.9,1.9,9.2,7.1
			c-0.7,5.2,7.4,9,7.8,13.1c0.3,4.1,3.7,6.2,7,6.5c3.2,0.3,1.8-53.3-10.8-55.7c-12.5-2.4-24.7,0.4-28.3,3.4
			C1891.9,564.9,1889,575.1,1889,575.1z"/>
		<path className="st20" d="M1889,575.1c0,0-9.8-0.7-11.6,4.9c-1.8,5.6,0.6,6.9-1.9,10.3c-2.5,3.4-1.1,9.4-1.1,9.4s-19.5-35.8,1.1-38.2
			C1896,559.3,1895.5,563.4,1889,575.1z"/>
		<path className="st24" d="M1876.2,777.1c-2.8,8.4-7.8,17.7-13.1,25.5c-4.6,4.3-9.1,7.6-11.9,8.2c-1.9,0.5-3.8,0.2-5.7-0.5
			c-5-2-9.9-7.5-13.8-12.9c-0.9-1.3-1.8-2.5-2.6-3.7c13.4-10.8,38.9-35.5,41.6-69.3C1874.3,678.2,1876.4,779.2,1876.2,777.1z"/>
		<path className="st24" d="M1845.4,810.2c4.7-7.2,14.2-14.2,27.9-19.8c-6.3,9.4-17.1,19-22.2,20.3
			C1849.2,811.2,1847.3,811,1845.4,810.2z"/>
		<path className="st24" d="M1957.3,721.4c0,0-10.6,106.2-57.4,120.8c-0.3-0.2-0.6-0.3-0.8-0.5c-6.7-3.9-16.2-5.8-25.2-7.3
			c-11.5-1.9-22.1-3.1-25.6-7.2c-4.1-4.9,7.9-10.3,17.5-15.9c4.8-2.8,9.1-5.7,10.4-8.6c1-2.3,0.9-7.2,0.3-13.6v0
			C1922.1,772.4,1957.3,721.4,1957.3,721.4z"/>
		<path className="st17" d="M1969.3,690c-4.9-22.1-27.1-9.4-27.1-9.4c-7.7-1.8-64.3,89.9-68.8,92c-3.8,1.8-56-13.4-71.8-18
			c-4.1-3.2-18.4-14.4-21-14.5c-2.9-0.2-22.6,4.8-22.4,7.9c0.1,3.1,4.7,7.7,12,8.8c5.5,0.9,14.8,4.5,20.7,5.4l0,0
			c0,0,57.5,39.2,82,44C1894.9,810.4,1974.2,712.1,1969.3,690z"/>
		<path className="st14" d="M1838.8,764.9c0,0-13.3,34.1,2.6,47c15.9,13,50.4,8.6,88.2-44.1c37.8-52.7,53.1-81.4,33.5-89.7
			c-19.6-8.4-35.8,4.8-45.9,25.3c-10.5,21.3-29.7,50.8-41.3,51.9C1864.4,756.4,1838.8,764.9,1838.8,764.9z"/>
	</g>
	<g>
		<path className="st17" d="M1506.3,444.6l0,5.1c0,0-1.4,16.1,18.4,18.4c19.8,2.4,36.1,2,35.5-10.4c-1.8-9.6-5-24.5-5.1-32.5
			c0-3,0.2-6.1,0.7-9.6l-38.4-0.8l-11.3,1.8L1506.3,444.6z"/>
		<path className="st25" d="M1506.1,416.7l0.1,27.8c4.1,1.9,8.7,3.1,13.8,3.1c17.6,0,29.1-12.9,35-22.3c0-3,0.2-6.1,0.7-9.6l-38.4-0.8
			L1506.1,416.7z"/>
		<path className="st17" d="M1558.8,409.5c-4.5,24-35.4,23.2-48.8,21.7c-3.8-0.4-6.1-0.9-6.1-0.9c-4.2-1.1-6.6-7.8-7.7-16.6
			c-2.2-17.3,0.6-42.7,3.5-49.3c4.4-9.8,12.7-20.4,43.9-12.7C1574.7,359.3,1564.5,378.7,1558.8,409.5z"/>
		<path className="st26" d="M1584.1,1119.3h-43.8c0.3-2.3,1.4-9.3,3.5-15.7c0.7-2.2,1.5-4.4,2.5-6.3c4.3-8.5,31.3-3.1,31.3-3.1
			s2.5,2.2,4.5,10.4C1582.9,1108.2,1583.7,1113,1584.1,1119.3z"/>
		<path className="st26" d="M1451.6,1105.5c-0.1,6-0.9,11.6-3,13.8h-86.7c1.1-3.1,4.2-7.9,13.1-9.3c10.1-1.6,25.9-6.5,35.1-16.2
			c3.3-3.5,5.7-7.5,6.8-12.3c4.1-18.2,33.7,5.6,33.7,5.6S1451.8,1096.6,1451.6,1105.5z"/>
		<path className="st27" d="M1509.3,909.2c-1.2,6.7-2,12.1-2.2,16c-2.8,53.8-45.3,176.7-52.9,179.6c-11.8,4.4-30.3-5-40-8.1
			c-4-1.3-6.7-5.3-5.8-9.4c21-96.8,28.8-236.1,31.6-318.6c1.4-41.6,8.6-70.3,8.6-70.3s103.7-27.7,104.3,7.3
			C1553.4,736.6,1518.5,858.1,1509.3,909.2z"/>
		<path className="st26" d="M1509.3,909.2L1440,768.6c1.4-41.6,8.6-70.3,8.6-70.3s103.7-27.7,104.3,7.3
			C1553.4,736.6,1518.5,858.1,1509.3,909.2z"/>
		<path className="st27" d="M1486.2,705.8L1541,1103c0,0,24.1,5.8,42.8,1.2c0,0,16-211.2,14.7-262.3s11.5-136.7-2.9-146.1
			C1581.1,686.3,1486.2,705.8,1486.2,705.8z"/>
		<path className="st26" d="M1490.1,341.6c0,0,13.7-1.1,29.9-8.1c13.1-5.7,29.7,0.6,35.1,3.4c-0.1-0.9-0.5-2-1.3-3.2
			c0,0,2.4,1.7,2.8,4.1c0.2,0.2,0.4,0.3,0.3,0.4c0,0,2.7-0.5,4.5,0.3c0,0-1.2-0.2-1.7,0.6c0,0.1-0.1,0.2-0.2,0.2
			c20.5,9.9,22.4,42.3,15.8,49.7c-7.9,9-17.4,29.3-17.4,29.3s-3.5-4.8-2-12.7c1.4-7.9-5.4-7.9-14.1-11.5c-8.6-3.6-1.4-13.7-9-19.8
			c-7.6-6.1-35.3-2.5-35-7.2C1487.4,363.3,1490.1,342.7,1490.1,341.6z"/>
		<path className="st28" d="M1564.9,464.7l-12.6,270.7c0,0-105.3,1.7-102.3-22.1c3-23.8,38-240.3,38-240.3L1564.9,464.7z"/>
		<path className="st29" d="M1602.5,618.1c-6.3,18.8,5.5,81.9,9.8,103.2c0.9,4.5,1.5,7.2,1.5,7.2c-14.6,23.7-68,23.4-68,23.4
			c-10.3-45.4-15.6-117.7-15.6-117.7l41-179.6l51.6,47.7c0,0-3.9,29.1-8.7,58.6C1610.2,584.3,1605.9,608.2,1602.5,618.1z"/>
		<path className="st30" d="M1514.9,413.4c0,0-1,3.1-8.8,2c0,0-6.6-0.9-6.1-4.4C1500,411,1506.6,409,1514.9,413.4z"/>
		<path className="st29" d="M1455.7,468.5c0,0,0,0,0,0.1c-2.5,2.4-72.8,70.7-86.4,97.4c-13.9,27.1,63.4,81.1,63.4,81.1s5,2,8.4,1.2
			c-3.6,30-7.7,57.7-5.3,69.5c4.4,21.3,24.1,28.5,24.1,26.9c0-0.5,7.2-77.6,11.1-117.8c8.4-86.2,29.5-171.8,29.5-171.8
			C1477.5,457.5,1455.7,468.5,1455.7,468.5z M1413.8,577.8c-0.1-0.1-0.1-0.3-0.1-0.4c0-3.9,14.9-12.5,31-22.7
			c0.2-0.2,0.3-0.3,0.3-0.3c0,0,0,0,0,0c-0.3,8.3-0.3,16.5,0.2,24c0.9,14.1-0.1,30.9-1.8,48C1435.8,614.4,1415.3,582.2,1413.8,577.8
			z"/>
		<g>
			<path className="st31" d="M1567.9,454.3c0.1-2.6-12.1-6.2-12.1-6.2s-14,19.4-37.1,19.8c0,0,6.6,12.8,14.3,16.1
				C1533,484,1567.1,469.6,1567.9,454.3z"/>
			<path className="st31" d="M1518.7,467.4c0,0-12.2-7.2-12.3-15.1c0,0-7.9-1-11.3,2.8c0,0-2.9,13.5,0.9,21.3
				C1496,476.5,1513.6,473.8,1518.7,467.4z"/>
			<path className="st32" d="M1527,466.3l-16.6-4c0,0-2.2,0.2-2.1,2.9c0.1,2.7,4.7,10.6,6.7,11.2C1517.1,477,1530.9,471.7,1527,466.3z"
				/>
			<path className="st28" d="M1566,453c0.1-2.6-8.2-7.9-8.2-7.9s-16,18.7-39.1,19.1c0,0,6.6,12.8,14.3,16.1
				C1533,480.2,1565.2,468.3,1566,453z"/>
			<path className="st28" d="M1518.7,464.1c0,0-12.4-6.6-12.4-14.4c0,0-7.5,3.3-10.9,7.1c0,0-3.2,8.5,0.7,16.3
				C1496,473.1,1513.6,470.5,1518.7,464.1z"/>
			<g>
				<path className="st21" d="M1486.3,650.9c0.6,6.3,3.5,12.2,8.1,16.5l7.3,6.8c1.8,1.7,4.7,1.5,6.3-0.5l9.1-11.6
					c2.4-3.1,3.6-7,3.2-10.9c-0.9-8.7-2.4-25.6-3.7-41.8c-1-13.2-1.9-26-1.9-33.7c-0.2-24.9,4.7-104.1,4.7-104.1l-6,0.3
					c0,0-14.8,30.8-22.5,72.6c-1.9,10.3-3.4,21.3-4.1,32.6C1486.9,577,1483.7,622.3,1486.3,650.9z"/>
				<path className="st32" d="M1486.3,650.9c0.6,6.3,3.5,12.2,8.1,16.5l7.3,6.8c1.8,1.7,4.7,1.5,6.3-0.5l9.1-11.6
					c2.4-3.1,3.6-7,3.2-10.9c-0.9-8.7-2.4-25.6-3.7-41.8c-16.5-18.5-23.1-44.1-25.7-64.9c-1.9,10.3-3.4,21.3-4.1,32.6
					C1486.9,577,1483.7,622.3,1486.3,650.9z"/>
			</g>
		</g>
		<path className="st17" d="M1427.7,651.6c0-6.9,6.1-12.4,12.9-11.4c1.9,0.3,3.6,1.1,4.8,2.6c4.7,6.2,9.2,24.4,0.8,25.3
			c-3.4,0.3-7.7-2-11.1-4.6c-3.4-2.6-7.4-6.6-7.4-10.9V651.6z"/>
		<path className="st26" d="M1612.3,721.4c-15.1-15.7-41.2-46.6-40.3-72c1.2-35.5,42-88.4,42-88.4c-3.8,23.4-8.1,47.2-11.5,57.2
			C1596.2,636.9,1608.1,700,1612.3,721.4z"/>
		<path className="st17" d="M1611.8,659.5c0,0-10.9,5.4-17.4,2.7c-6.6-2.7-14.3-4.8-21.7,3.6c-7.4,8.4-8.9,14.2-7.4,17.3
			c1.6,3.1,18.7,1.9,21.6,0c2.8-1.9,7.4-6.7,10.2-5.9c7.9,2.3,14.5-3.7,18.2-8.5C1617.5,665.9,1611.5,664.5,1611.8,659.5z"/>
		<path className="st29" d="M1571.2,454.6c0,0,43.2,4.8,53.4,23.6c10.2,18.8,63.2,95.1,61.5,126.8c-1.7,31.7-72.3,67.3-72.3,67.3
			s-15.6-6.6-15.9-13.7c-0.2-7.1,48.8-49.6,45.8-57.5c-3-7.9-57-70.6-62.2-91.3C1576.3,489.1,1571.2,454.6,1571.2,454.6z"/>
		<path className="st26" d="M1445,554.3c0,0-0.1,0.1-0.3,0.3c-16.1,10.2-31,18.8-31,22.7c-2.2-6.9,18.8-35.6,25.6-41.5
			C1446.2,529.9,1445,554.3,1445,554.3z"/>
		<path className="st26" d="M1557.8,445c0,0-32.8,137.5-27.6,189.2c0,0,12.1-55.3,41.1-100.7c0,0-10.6-9.3-10-12.8c0,0,7.9-2.3,15.5-0.8
			c0,0-0.8-59.3-5.6-65.5C1566.4,448.3,1557.8,445,1557.8,445z"/>
		<path className="st26" d="M1506.3,449.7c0.7-0.4-32.5,134.3-35.3,177.3c0,0,3.3-76.6,3-98.7c0,0,13.6-7.2,13.6-9.7
			c0-2.5-14.5-9.4-14.5-9.4s9.2-47.2,14.2-52.4C1492.3,451.6,1506.3,449.7,1506.3,449.7z"/>
	</g>
	<g>
		<g>
			<path className="st17" d="M1079.4,1045.1c1.7,2,2,4.2,1.1,6.6c0,0,0,0,0,0c-1.6,4.4-6.8,9.3-12.9,14.2c-0.8,0.6-1.5,1.2-2.1,1.7
				c-0.2,0.1-0.3,0.3-0.5,0.4c-0.1,0.1-0.2,0.2-0.4,0.3c-5.7,5.2-3.5,6.4-13.7,17.1c-11.6,12.1-19.7,12.3-21.9,11.2
				c-1.9-0.9,2-7.4,6.3-14.6c0.2-0.3,0.4-0.7,0.6-1.1c0.6-1,1.2-1.9,1.7-2.9c5.1-8.7,3.8-12.8,2.6-25.7c-1-10.5-16.3-58.7-16.3-58.7
				l22.3-3.8c0,0,6.7,38.4,14.1,44.3c4,3.1,8.4,3.2,12.2,5.5c0.3,0.2,0.5,0.3,0.8,0.5C1075.4,1041.7,1077.6,1043.2,1079.4,1045.1z"
				/>
			<path className="st21" d="M1079.4,1045.1c1.7,2,2,4.2,1.1,6.6c0,0,0,0,0,0c-1.9,4.4-7.1,9.3-12.9,14.1c-0.8,0.6-1.4,1.2-2.1,1.8
				c-0.2,0.1-0.3,0.3-0.5,0.4c-0.1,0.1-0.2,0.2-0.4,0.3c-5.7,5.2-3.5,6.4-13.7,17.1c-11.6,12.1-19.7,12.3-21.9,11.2
				c-1.9-0.9,2-7.4,6.3-14.6c2.3-0.8,12.8-5.1,20.7-15.3c7-8.9,11.7-20.4,16.5-27.1c0.3,0.2,0.5,0.3,0.8,0.5
				C1075.4,1041.7,1077.6,1043.2,1079.4,1045.1z"/>
			<path className="st17" d="M899.5,1031.2c-1.4,6.9-11.2,5.7-22.2,3.1c-11-2.7-8.4,0.5-24-1.2c-15.6-1.7-20.3-7.5-20.8-9.9
				c-0.4-2.1,7.3-2.8,15.6-3.7c1-0.1,2.1-0.2,3.1-0.4c9.3-1.2,16.2-7.2,24.7-12.1c8-4.7,20-23.8,20-23.8l21.4,1.7
				c0,0-11.2,17.1-15.6,24.5c-2.6,4.4-2.4,10.1-2.1,14.6C899.9,1026.3,900,1028.8,899.5,1031.2z"/>
			<path className="st21" d="M877.4,1034.3c-11-2.7-8.4,0.5-24-1.2c-15.6-1.7-20.3-7.5-20.8-9.9c-0.4-2.1,7.3-2.8,15.6-3.7l0.1,0.2
				c0,0,9.4,6.6,22.3,6.9c10.6,0.3,21.8-2.8,29.1-2.7c0.2,2.4,0.3,4.9-0.2,7.3C898.1,1038.1,888.3,1037,877.4,1034.3z"/>
			<path className="st17" d="M947.1,716.9c0,0-5.1-12.5-10.7-13c-5.6-0.5-23.5-3.3-24.7-0.8c-1.3,2.5,0,11.7,3.8,15
				c3.8,3.3,27.5,8.7,27.5,8.7L947.1,716.9z"/>
			<path className="st33" d="M981.5,894.4l46.1,124.1c0,0,7.1,0.7,13.9-1.3c6.2-1.8,13.4-6.5,13.4-6.5s-11.4-119.2-32.4-144
				C1001.5,842,981.5,894.4,981.5,894.4z"/>
			<path className="st21" d="M1163.9,844.2c0,0-132.5-44.8-162.1-35.3C972.3,818.4,883.6,995,883.6,995s2,2.7,7.5,4.7
				c5.1,1.9,17.4,1.8,17.4,1.8s80.1-68.6,89.6-88.7c9.5-20,13.3-39.1,22.9-37.2c9.5,1.9,123,46.7,148.7,20
				c25.7-26.7,19-61.4,19-61.4L1163.9,844.2z"/>
			<path className="st34" d="M1083,635.7c-2.1-4.4-4.5-12.1-5.6-26c0.2,1.4,2.6,18.8,9.3,28.7c27.6,18.1,80.4,78.5,79.3,90
				c0,0,18.6-31.6,18.9-31.7c0,0,34.3-43.6-6.4-68.6c-20.7-12.7-20.6-29-19.7-43.2c0.9-14.2-5.6-75.1-47.1-59.2c0,0-6.6-3-9.6-2.5
				c0,0,2.4,0.5,3.7,1.7c-4.8-0.3-11.7,0.1-17.4,3.3C1073.2,536.9,1059.6,614.3,1083,635.7z"/>
			<path className="st17" d="M1088.2,639.4c-0.1,0.1,13.3,7,23.4,4.3c9.5-2.6,15.7-14.9,15.6-15c-4-0.8-5.2-6.3-5.1-30.1l-1.8,0.4
				l-30.6,6.1c0,0,0.7,9.6,0.7,18.7C1090.4,631.3,1090,638.6,1088.2,639.4z"/>
			<path className="st35" d="M1089.7,605c0,0,0.7,9.6,0.7,18.7c17.1-0.5,26.2-16.1,29.9-24.8L1089.7,605z"/>
			<path className="st34" d="M1123.5,595.6c0,0,9-14.2,11.1-26.3c1.5-8.7-2.9-40.8-35.1-36.1c0,0-9.4,0.9-18.2,6.9
				c-7,4.7-17.1,14.9-5.8,43l2.9,9.5L1123.5,595.6z"/>
			<path className="st17" d="M1084,613.6c0,0,40.5,0.7,40.6-24.6c0-25.3,5.3-42.2-20.6-43.7c-25.9-1.5-30.9,8.1-33,16.6
				C1068.9,570.3,1073.4,612.8,1084,613.6z"/>
			<path className="st34" d="M1085.5,544.7c0,0,11.1,29.6,28.1,34c17,4.4,24.4-0.2,24.4-0.2s-13.1-10.4-15.8-28.5
				C1122.2,550,1093.8,530.6,1085.5,544.7z"/>
			<path className="st34" d="M1088.2,547.1c0,0-8.3,6.6-10.3,13c-2,6.4-2.9,19.7-6.8,19.2c0,0-8.4-20.1,1-31.5
				C1082.1,535.8,1088.2,547.1,1088.2,547.1z"/>
			<path className="st36" d="M1195,844.9c-2.2,6.1-8.9,7.6-17.9,6.6c-17.1-2-42.6-13.5-60.9-21.5c-28-12.1-40.7-0.7-49.6-8.4
				c-8.9-7.7,10.2-24.9-6.4-104.5c-5.6-27,29.9-84.9,29.9-84.9s3.1,16.8,37-3.4c1.2-0.7,14.6,19.1,27.5,43.5
				c14.2,26.9,27.8,59.5,23.8,76.2C1170.9,780.4,1201.4,827.2,1195,844.9z"/>
			<path className="st36" d="M1090.2,632.1l-20.9,85.9c0,0-2.6,4.6-6.7,11.2c-9.6,15.5-27.3,41.9-38.7,44.5c-5.6,1.3-17.5-3.3-30.7-10
				c-24.9-12.6-54.4-32.4-54.4-32.4c-1.9-11.4,8-20.8,8-20.8s59.7,22.5,65.7,22.9c12.9,0.9,26.1-61.5,38.2-82.3
				C1059.3,636.2,1090.2,632.1,1090.2,632.1z"/>
			<path className="st30" d="M1093,598.3c0,0-0.8,3.2-8.7,2.7c0,0-6.7-0.4-6.5-3.9C1077.7,597,1084.2,594.5,1093,598.3z"/>
			<path className="st37" d="M1195,844.9c-2.2,6.1-8.9,7.6-17.9,6.6c-11.9-5.2-63.1-25-62.5-38.5c0.9-19.9,9.9-20.5,3.5-45.1
				c-5.1-19.7,42.2-56.4,49.8-64.4c14.2,26.9,14.6,28.2,10.6,45C1170.9,780.4,1201.4,827.2,1195,844.9z"/>
			<path className="st37" d="M1062.5,729.3c-9.6,15.5-27.3,41.9-38.7,44.5c-5.6,1.3-17.5-3.3-30.7-10c9.6,2.5,19,2.4,28.1,1.5
				c9.9-1,12.7-13,28.3-31.1C1059.6,722.4,1062,725.4,1062.5,729.3z"/>
			<path className="st17" d="M1110,767.4c0,0-8.6-6.7-16.7-5.1c-8.1,1.6-12.1,7.2-11.8,9.7c0.3,2.5,4.6,9.7,10.8,10.3
				c6.2,0.6,23.8-3.8,23.8-3.8L1110,767.4z"/>
			<path className="st36" d="M1127.2,628.7c0,0,33,2,44.5,18c16.1,22.5,44.1,114.1,36.4,135.1l-100.5-0.4c0,0-2.4-11.4,1-16.9
				c3.4-5.5,58.5-14.4,61-16.9c2.5-2.5-31.8-49.6-31.8-57.2C1137.8,682.7,1127.2,628.7,1127.2,628.7z"/>
		</g>
		<g>
			<g>
				<polygon className="st20" points="1101.4,804.9 979.7,804.9 957.7,728.4 1079.3,728.4 				"/>
				<rect x="980.1" y="802" className="st22" width="159.1" height="3"/>
			</g>
			<path className="st22" d="M1018.3,765.4c-0.8-2.7,0.8-4.9,3.5-4.9c2.7,0,5.5,2.2,6.3,4.9c0.8,2.7-0.8,4.9-3.5,4.9
				C1021.9,770.3,1019.1,768.1,1018.3,765.4z"/>
		</g>
	</g>
	<g>
		<path className="st17" d="M719,631.3c0,0,13.3-10.9,18.1-10.9c4.8-0.1,13.9-2.4,13.5-0.9c-0.4,1.6-8,3.6-6.7,4.3
			c1.3,0.7,12.4-2.3,15.5-0.5c3.1,1.8,10.4,9.2,4.5,12.4c-5.9,3.2-23.4,8.4-28,7.8c-4.5-0.6-14.8-1.3-14.8-1.3L719,631.3z"/>
		<polygon className="st17" points="549.1,1035.6 560.2,1082.6 576.9,1082.5 577.5,1035.6 		"/>
		<polygon className="st17" points="689.6,1037.6 721.4,1082.6 733.8,1066.7 714.6,1031.4 		"/>
		<path className="st22" d="M624.6,469.4C624.6,469.4,624.6,469.4,624.6,469.4c0-0.1,0-0.2,0-0.4c-0.2-2.3-0.5-4.7-0.8-7c0,0,0,0,0,0
			c-1-7-2.3-13.8-4-19.9c-1-3.5-2-6.7-3.2-9.6c-0.2-0.4-0.3-0.9-0.5-1.3l0,0c-2.7-6.6-5.8-11.4-9-13.2c-5.8-3.3-12.7-3.6-17.5-3.4
			c1.2-1.3,3.7-1.7,3.7-1.7c-3-0.4-9.7,2.5-9.7,2.5c-41.7-16.1-48.3,45.3-47.4,59.6c0.9,14.3-14,18.9-35.7,30.2
			c-41.4,21.4-45,50.2-45,50.2c0.3,0.2,0.7,0.4,1,0.7c2.1-3.5,6.3-10,9.9-11c-0.1,0.3-4.2,9-5.7,14c5.2,4,12.4,10,20.1,16.8
			c0,0,0,0,0,0c10.4,9,21.7,19.3,30.9,27.7c-0.1-2.9,0-6.9,1.1-9l1.7,10.5l0.2,1.4c5.8,5.3,10.4,9.6,12.7,11.8
			c0.2,0.2,0.4,0.4,0.6,0.6c0.7,0.6,1,1,1,1c-0.3-3.7,4.8-12.3,12.9-23c0.6-0.7,1.1-1.5,1.7-2.3c2.6-3.4,5.4-6.9,8.5-10.5
			c1.1-1.3,2.2-2.6,3.4-3.9c0,0,0,0,0,0c0.9-1.1,1.8-2.1,2.8-3.2l0,0c2.3-2.6,4.6-5.1,6.9-7.7c6.1-6.7,12.5-13.2,18.8-19.2
			c9.1-8.7,17.8-16.1,24.9-20.8c0.3-0.4,0.5-0.8,0.8-1.2c1.3-2.1,2.4-4.5,3.4-7c0.3-0.7,0.6-1.5,0.8-2.3c2.8-8,4-16.1,4.3-18.1
			c-0.7,8-1.8,14-3,18.4c-0.3,1-0.5,1.9-0.8,2.7v0c-0.6,1.9-1.2,3.4-1.9,4.7c1.2-1.1,2.3-2.4,3.3-3.8c0.7-0.9,1.3-1.9,1.9-2.9
			C624.8,507.5,626.3,488.1,624.6,469.4z"/>
		<path className="st17" d="M607.3,530c0.1,0.1-13.4,7.1-23.6,4.3c-9.6-2.6-15.8-15-15.7-15.1c4.1-0.8,5.2-6.4,5.1-30.3l1.8,0.4
			l30.8,6.1c0,0-0.7,9.7-0.7,18.8C605,521.9,605.5,529.2,607.3,530z"/>
		<path className="st19" d="M572.4,428.2c0,0,15.2-16.2,34.3-0.8C606.7,427.3,595.6,425.4,572.4,428.2z"/>
		<path className="st35" d="M605.8,495.4c0,0-0.7,9.7-0.7,18.8c-17.3-0.5-26.4-16.2-30.1-25L605.8,495.4z"/>
		<path className="st22" d="M571.8,485.9c0,0-9-14.3-11.2-26.5c-1.5-8.7,2.9-41.1,35.4-36.4c0,0,9.4,0.9,18.3,6.9
			c7.1,4.8,17.2,15.1,5.9,43.3l-3,9.5L571.8,485.9z"/>
		<path className="st27" d="M728.7,1054.4l-16.3,0.5l-17.7,0.5c0,0-40.9-45.5-63.8-118.5c-0.5-1.7-1.1-3.4-1.7-5.1
			c-12.5-36.6-38.6-82.5-52.3-124.1c-2.2-6.6-4.1-12.9-5.9-18.8c-0.6-1.9-1.1-3.7-1.6-5.6c-10.1-35.1-13-58.1-15.7-82.8l99,0.8
			C652.6,701.4,668.6,869.5,728.7,1054.4z"/>
		<path className="st38" d="M638.8,644.5c-0.2,47.1,6.9,67.3,6.9,67.3s-42.4,21.5-92.8,5.7c-0.6-0.2-41.7-9.6-41.7-9.6
			c0.8-1.9,8.3-33.7,9.2-35.4c10.6-22.8,18.7-32.9,20-39.9c2.3-13.1,2.4-26.7,1.2-39.5c-3.1-33.9-12.2-62-12.2-62
			c13.7-3.1,26.6-8.6,40.9-14c3.3,4.1,13.3,8.4,22,8.2c10-0.2,13.3-4.5,12.8-9.2c10.7,5.9,19.2,11.6,19.2,11.6
			c9.1,15.8,27.5,31.1,28.9,55.3C653.5,589.1,638.8,643.2,638.8,644.5z"/>
		<path className="st17" d="M611.6,504.1c0,0-40.8,0.7-40.9-24.8c0-25.4-5.3-42.5,20.8-44c26.1-1.5,31.1,8.2,33.2,16.7
			C626.7,460.5,622.2,503.2,611.6,504.1z"/>
		<path className="st22" d="M610,434.7c0,0-11.2,29.8-28.3,34.3c-17.2,4.4-24.6-0.2-24.6-0.2s13.2-10.5,15.9-28.7
			C573,440.1,601.6,420.5,610,434.7z"/>
		<path className="st22" d="M607.3,437.1c0,0,8.3,6.7,10.4,13.1c2,6.5,3,19.8,6.8,19.4c0,0,8.4-20.3-1-31.8
			C613.4,425.7,607.3,437.1,607.3,437.1z"/>
		<path className="st17" d="M559.7,1079.9c0,0,1.3,9.3-2.1,19.3c0,0-2.7,12.5,9.5,12.7c12.3,0.2,15.3-0.9,13.9-8.6
			c-1.4-7.6-4-20.9-4-20.9L559.7,1079.9z"/>
		<path className="st18" d="M582.6,1119.3h-26.9c-1.1-5.5,1.3-17.3,1.7-19.6c0-0.2,0.1-0.3,0.1-0.4c0-0.1,0-0.1,0-0.1
			c13.9,12.7,22.6-0.3,22.6-0.3c0,0,0,0,0,0.1C582.2,1103.9,582.6,1117.4,582.6,1119.3z"/>
		<path className="st17" d="M763.3,1104.6c0,0-22.6-25.1-29.6-37.9l-16.8,8.6l37.6,35.3l8.8-1.2L763.3,1104.6z"/>
		<path className="st18" d="M777.7,1119.3c0,0-28,0-28.5,0c-4.2,0-7.5-6.9-12.1-16c-1.8-3.7-6-5.7-10.2-6.8l0.1,22.8h-6.6l-6-24.1
			c-4-7.4-0.3-14,2.5-19.9c3.3,0,12.1,2.2,28.8,21.1c5.5,6.2,11.6,8.4,17.6,8.2c0.1,0.1,0.2,0.1,0.3,0.1
			C777.5,1111,777.7,1119.3,777.7,1119.3z"/>
		<path className="st26" d="M712.4,1054.9l-17.7,0.5c0,0-40.9-45.5-63.8-118.5c-0.5-1.7-1.1-3.4-1.7-5.1
			c-12.5-36.6-38.6-82.5-52.3-124.1c-2.2-6.6-4.1-12.9-5.9-18.8c-0.6-1.9-1.1-3.7-1.6-5.6l14.6-11.1c0,0,43.8,70.9,57.3,137.6
			C653,967.8,700.2,1037.5,712.4,1054.9z"/>
		<path className="st27" d="M585.5,916.1c0.2,32.4-1.4,107-5.6,137.9h-15.7c-8.7,0-13-0.1-13-0.1c-10.6-53.7-18.1-98.1-23.6-136.3
			c-4.5-31.4-8.5-58.3-11.6-81.5c-3.1-23.3-5.3-42.9-6-59.4c-0.1-2.6-0.2-5.1-0.3-7.6c0-2.5-0.1-4.9,0-7.2l85.5-8.3
			C594.1,810.3,585.3,897.2,585.5,916.1z"/>
		<path className="st26" d="M564.2,1054c-8.7,0-13-0.1-13-0.1c-10.6-53.7-18.1-98.1-23.6-136.3c-4.5-31.4-8.5-58.3-11.6-81.5
			c-3.1-23.3-5.3-42.9-6-59.4l31.4,18.5c0,0-20,7.1-12.4,60.6C536.6,909.2,553.6,1046.4,564.2,1054z"/>
		<path className="st3" d="M568.2,776.1c0,0-6,21.8-26.9,19c-20.8-2.8-50.5-15.3-50.5-15.3s8.9-28.1,20-65.1
			c13.4-44.8,16.7-107.7,24.6-144.1c2.2-10.2,17-13.5,17.5-19.6l17.3-33.5c0,0,25.8,57.9,27.2,72.5
			C598.8,604.5,568.2,776.1,568.2,776.1z"/>
		<path className="st39" d="M553.7,632.9c-0.9,23.6-9.2,63.9-42.4,81.6c-0.1,0.1-0.3,0.1-0.4,0.2c13.4-44.8,13.2-87.7,21.1-124.1
			C549.8,586.9,554.2,619.9,553.7,632.9z"/>
		<g>
			<path className="st18" d="M769.3,618.7h-32c0,0.2,0,0.8-0.1,1.6c-0.1,2.9-0.3,8.6-0.3,9.1c0.4,6.8,5.2,10.5,9.7,12.3h0c0,0,0,0,0.1,0
				c1.1,0.4,2.2,0.7,3.2,0.9c0.8,0.2,1.5,0.3,2.2,0.3c0.4,0,0.9,0.1,1.2,0.1c2.3,0,4.6-0.5,6.6-1.4c5.6-2.5,9.6-8.2,9.6-14.7v-6.3
				C769.4,620.1,769.4,619.4,769.3,618.7z"/>
			<path className="st19" d="M766.7,618.7h-4.3c0.1,0.7,0.1,1.3,0.1,2v6.3c0,4.4-1.8,8.4-4.6,11.3c-1.4,1.4-3.1,2.6-5,3.4
				c-1,0.4-2,0.8-3,1c-0.4,0.1-0.9,0.2-1.4,0.2c0.7,0.1,1.4,0.2,2.2,0.2c0.5,0,0.9,0,1.4-0.1c1.8-0.1,3.6-0.6,5.2-1.3
				c3-1.3,5.5-3.6,7.2-6.4c0,0,0,0,0,0c0.7-1.1,1.2-2.3,1.6-3.6c0.5-1.5,0.7-3.1,0.7-4.8v-6.3C766.8,620.1,766.8,619.4,766.7,618.7z
				"/>

				<rect x="746.7" y="641.8" transform="matrix(-1 -1.224647e-16 1.224647e-16 -1 1506.6219 1285.5312)" className="st18" width="13.2" height="2"/>
		</g>
		<path className="st17" d="M517.2,685.3c0,0,14.9-3.2,18.7,1c3.8,4.3,6,11,2.2,13.4c-3.8,2.4-14.9-4.1-18.9-1.5c-2.9,1.9-3.8,6.7-6.6,5
			c-2.9-1.7-5.9-12.6-5.9-12.6L517.2,685.3z"/>
		<path className="st3" d="M570.2,517.4c0,0-40.2,1.8-49.8,10.7c-9.7,9-67.5,78.3-68.4,96.4c-1,18.2,50.7,69.8,50.7,69.8
			s14.3-3.5,20.6-12.5c0,0-32-57.1-30.1-59.6c1.9-2.5,56.2-46.9,60.6-37.1C557.5,593.7,570.2,517.4,570.2,517.4z"/>
		<path className="st3" d="M723.1,625.4c0,0-45.9,15.3-51.6,14c-5.7-1.3-13.9-63.4-18.4-84.8c-5.7-27.4-27.4-32.9-27.4-32.9l-20.6-5.5
			c0,0,23.6,58.4,24.3,70.2c0.7,11.8,2.8,193.1,2.8,193.1s-1.4,8.3,14.6,4.9c16-3.5,20.1-6.9,20.1-6.9s-6.9-50.7-10.2-95.7
			c16.3-2.8,68.6-29.3,68.6-29.3C733.5,639.7,723.1,625.4,723.1,625.4z"/>
	</g>
	<g>
		<g>
			<path className="st40" d="M851.3,821.2l-8.4,47.3v0l-23.1,130.8l-20.6,116.9c-0.3,1.8-1.9,3.1-3.7,3.1c-1.6,0-2.9-1.4-2.7-3
				l17.8-132.5l19-141.8l2.9-21.4L851.3,821.2z"/>
		</g>
		<g>
			<path className="st40" d="M942.7,821.2l-8.4,47.3v0l-23.1,130.8l-20.6,116.9c-0.3,1.8-1.9,3.1-3.7,3.1c-1.6,0-2.9-1.4-2.7-3
				L902,983.8L921,842l2.9-21.4L942.7,821.2z"/>
		</g>
		<path className="st13" d="M843,868.5c1.1-20.3-13.3-26.5-13.3-26.5l2.9-21.4l18.8,0.5L843,868.5z"/>
		<g>
			<g>
				<path className="st40" d="M1639.4,1119.3c-1.8,0-3.4-1.3-3.7-3.1l-18.3-103.9L1591,863l-7.4-41.8l18.8-0.5l3.3,24.3l22.9,170.4
					l13.6,101C1642.3,1117.9,1641,1119.3,1639.4,1119.3z"/>
			</g>
			<path className="st13" d="M1605.7,844.9c-12.2,5.4-14.7,18.1-14.7,18.1l-7.4-41.8l18.8-0.5L1605.7,844.9z"/>
		</g>
		<g>
			<g>
				<path className="st40" d="M1744.7,1119.3c-1.8,0-3.4-1.3-3.7-3.1l-18.3-103.9L1696.3,863l-7.4-41.8l18.8-0.5l3.3,24.3l22.9,170.4
					l13.6,101C1747.6,1117.9,1746.3,1119.3,1744.7,1119.3z"/>
			</g>
			<path className="st13" d="M1710.9,844.9c-12.2,5.4-14.7,18.1-14.7,18.1l-7.4-41.8l18.8-0.5L1710.9,844.9z"/>
		</g>
		<path className="st41" d="M1742.2,837.6H762.4c-8.9,0-16.2-7.3-16.2-16.2V821c0-8.9,7.3-16.2,16.2-16.2h979.7
			c8.9,0,16.2,7.3,16.2,16.2v0.3C1758.4,830.3,1751.1,837.6,1742.2,837.6z"/>
	</g>
	<g>
		<path className="st18" d="M957.1,785c-1.5-0.9-4.5-0.6-6.6-0.1v-3.1c0-0.7,0-1.4-0.1-2h-32c-0.1,0.7-0.1,1.3-0.1,2v6.3
			c0,8.9,7.3,16.1,16.1,16.1c4.8,0,9.1-2.1,12.1-5.5l0,0c0,0,7.6-1.9,10-4.7C958.8,791.2,959.6,786.6,957.1,785z M955.4,790.8
			c-0.8,2.1-4.4,3.2-6.2,3.6c0.7-1.6,1.2-3.4,1.3-5.3c1.1-1.5,2.9-2.4,4.1-2.2C955.7,787.2,956.4,788.2,955.4,790.8z"/>
		<path className="st19" d="M920.8,781.8v6.3c0,8.9,7.3,16.1,16.1,16.1c0.7,0,1.5-0.1,2.2-0.2c-7.9-1.1-14-7.8-14-16v-6.3
			c0-0.7,0-1.4,0.1-2H921C920.9,780.5,920.8,781.1,920.8,781.8z"/>
		<rect x="927.7" y="802.8" className="st18" width="13.2" height="2"/>
	</g>
	<g>
		<path className="st18" d="M1412,785c-1.5-0.9-4.5-0.6-6.6-0.1v-3.1c0-0.7,0-1.4-0.1-2h-32c-0.1,0.7-0.1,1.3-0.1,2v6.3
			c0,8.9,7.3,16.1,16.1,16.1c4.8,0,9.1-2.1,12.1-5.5l0,0c0,0,7.6-1.9,10-4.7C1413.8,791.2,1414.5,786.6,1412,785z M1410.3,790.8
			c-0.8,2.1-4.4,3.2-6.2,3.6c0.7-1.6,1.2-3.4,1.3-5.3c1.1-1.5,2.9-2.4,4.1-2.2C1410.6,787.2,1411.3,788.2,1410.3,790.8z"/>
		<path className="st19" d="M1375.7,781.8v6.3c0,8.9,7.3,16.1,16.1,16.1c0.7,0,1.5-0.1,2.2-0.2c-7.9-1.1-14-7.8-14-16v-6.3
			c0-0.7,0-1.4,0.1-2h-4.3C1375.8,780.5,1375.7,781.1,1375.7,781.8z"/>
		<rect x="1382.7" y="802.8" className="st18" width="13.2" height="2"/>
	</g>
	<path className="st2" d="M222.5,558.2v561.1h-148c0,0-2.2-21.8-2.9-57.1c-0.4-20.5-0.2-45.6,1.2-73.6c0.1-2.3,0.2-4.6,0.4-6.9
		c0.8-12.8,1.8-26.2,3.1-40c0.1-1.2,0.2-2.5,0.4-3.7c1.5-14.4,3.3-29.4,5.7-44.9c1.9-12.5,4.1-25.3,6.6-38.3
		c0.2-0.9,0.4-1.8,0.5-2.7c1.3-6.6,2.7-13.3,4.2-20c0.6-2.6,1.2-5.3,1.8-7.9c1.2-5.2,2.5-10.4,3.8-15.6c3.2-12.7,6.8-25.6,10.8-38.5
		c0.4-1.3,0.8-2.6,1.2-4c1.8-5.7,3.7-11.5,5.7-17.2c3-8.8,6.2-17.5,9.6-26.3c2.1-5.5,4.3-11,6.6-16.4
		C154.8,654.4,183.8,603.6,222.5,558.2z"/>
	<path className="st42" d="M2723.1,1128.7H3.6c-2,0-3.6-1.6-3.6-3.6v-2.6c0-2,1.6-3.6,3.6-3.6h2719.5c2,0,3.6,1.6,3.6,3.6v2.6
		C2726.7,1127.1,2725.1,1128.7,2723.1,1128.7z"/>
</g>
</svg>
